<svg id="_068a58e5d99ec6d2680051ee942a11df" data-name="068a58e5d99ec6d2680051ee942a11df" xmlns="http://www.w3.org/2000/svg" xmlns:xlink="http://www.w3.org/1999/xlink" width="21.381" height="36.5" viewBox="0 0 21.381 36.5">
  <defs>
    <linearGradient id="linear-gradient" x1="0.5" x2="0.5" y2="1" gradientUnits="objectBoundingBox">
      <stop offset="0" stop-color="#84589a"/>
      <stop offset="1" stop-color="#3f17c0"/>
    </linearGradient>
  </defs>
  <g id="Group_12" data-name="Group 12">
    <path id="Path_149" data-name="Path 149" d="M227.015-500.89a4.826,4.826,0,0,0-.489.526c-.684.842-1.145.936-2.138.41a3.029,3.029,0,0,0-.806-.324c-.324,0-.641.389-.785.972-.158.648-.346.943-.713,1.123-.266.137-.367.151-1.109.1l-.813-.05-.223.223-.223.223.05.813c.05.742.036.842-.1,1.109-.18.36-.454.533-1.152.742-.6.18-.943.446-.943.756,0,.18.05.3.461,1.073a1.391,1.391,0,0,1,.065,1.245,2.742,2.742,0,0,1-.6.641c-.54.432-.641.569-.641.871s.137.482.612.871c.878.705.958,1.109.432,2.145-.353.691-.374.8-.223,1.1.115.209.41.36,1.066.547a1.393,1.393,0,0,1,.993.8,2.8,2.8,0,0,1,.036.958c-.043.576-.029.749.065.928.166.317.526.4,1.195.295,1.051-.173,1.5.166,1.836,1.4a1.651,1.651,0,0,0,.295.6c.259.259.713.2,1.289-.144a1.332,1.332,0,0,1,1.3-.231,1.694,1.694,0,0,1,.842.742,1.93,1.93,0,0,0,.525.5c.418.2.67.057,1.324-.77a1.345,1.345,0,0,1,1.188-.547,2.577,2.577,0,0,1,.727.31c.576.346,1.029.4,1.289.144a1.648,1.648,0,0,0,.3-.6c.338-1.238.785-1.577,1.836-1.4.67.108,1.029.022,1.195-.295.093-.18.108-.353.065-.928a2.789,2.789,0,0,1,.036-.958,1.392,1.392,0,0,1,.993-.8c.655-.187.95-.338,1.065-.547.151-.3.13-.432-.223-1.094-.533-1.015-.454-1.447.432-2.152.475-.389.6-.569.612-.871s-.1-.439-.641-.871-.727-.742-.727-1.209c0-.3.05-.425.482-1.224a1.7,1.7,0,0,0,.144-.446c.057-.367-.231-.634-.921-.835-.67-.194-1.015-.418-1.181-.756-.108-.231-.115-.389-.072-1.087l.05-.82-.223-.223-.223-.223-.813.05c-.742.05-.842.036-1.109-.1-.367-.187-.547-.468-.734-1.159-.158-.6-.439-.936-.77-.936-.173,0-.3.05-1.066.461a1.328,1.328,0,0,1-1.807-.461C227.871-500.941,227.4-501.157,227.015-500.89Zm2.145,3.34a8.508,8.508,0,0,1,2.419,1.123,7.631,7.631,0,0,1,2.879,4.247,5.674,5.674,0,0,1,.194,1.8,5.445,5.445,0,0,1-.187,1.771,7.4,7.4,0,0,1-3.11,4.427A7.072,7.072,0,0,1,227.4-483a7.332,7.332,0,0,1-7.141-5.845,9.05,9.05,0,0,1,.036-3.175,7.373,7.373,0,0,1,3.758-4.9,6.365,6.365,0,0,1,1.908-.691A8.407,8.407,0,0,1,229.16-497.55Z" transform="translate(-216.706 501.001)" fill="#84589a"/>
    <path id="Path_150" data-name="Path 150" d="M346.54-376.585a5.222,5.222,0,0,0-1.577.526,5.994,5.994,0,0,0-3.139,3.873,6.913,6.913,0,0,0,0,3.024,5.931,5.931,0,0,0,6.788,4.4,6,6,0,0,0,4.672-4.4,7.779,7.779,0,0,0,.072-2.736,6.067,6.067,0,0,0-3.24-4.175A6.164,6.164,0,0,0,346.54-376.585Z" transform="translate(-336.865 381.296)" fill="#3f17c0"/>
    <path id="Path_151" data-name="Path 151" d="M217.09,19.249c-.381,1.224-4.11,14.254-4.11,14.376a.894.894,0,0,0,.41.662c.187.1-.007.151,2.34-.612l1.634-.533,1.382,1.5c1.49,1.627,1.519,1.648,1.98,1.368a.839.839,0,0,0,.3-.338c.043-.115.633-2.152,1.31-4.528s1.253-4.384,1.289-4.463l.058-.144.043.144c.022.079.6,2.088,1.274,4.463s1.267,4.413,1.31,4.528a.838.838,0,0,0,.3.338c.461.281.489.259,1.98-1.368l1.375-1.5,1.857.6c1.015.331,1.9.6,1.965.6.187,0,.569-.475.569-.705,0-.187-4.132-14.534-4.2-14.606s-.4.05-.619.238a1.994,1.994,0,0,0-.583,1.123c-.173.813-.54,1.195-1.058,1.108a3.114,3.114,0,0,1-.742-.331,3.522,3.522,0,0,0-.886-.374.866.866,0,0,0-.792.115,1.924,1.924,0,0,0-.763.67c-.806,1.065-1.281,1.08-2.03.072a1.6,1.6,0,0,0-2.512-.475,2.865,2.865,0,0,1-.727.324c-.518.086-.871-.281-1.066-1.123a1.712,1.712,0,0,0-.806-1.267C217.278,18.969,217.177,19,217.09,19.249Z" transform="translate(-212.98 0.349)" fill="url(#linear-gradient)"/>
  </g>
</svg>
