<svg xmlns="http://www.w3.org/2000/svg" width="132.279" height="132.279" viewBox="0 0 132.279 132.279">
  <g id="reshot-icon-partnership-XNJ2MT5H9Y" transform="translate(-1 -1)">
    <g id="Group_396" data-name="Group 396" transform="translate(1 1)">
      <g id="Group_393" data-name="Group 393" transform="translate(10.356 10.356)">
        <g id="Group_392" data-name="Group 392">
          <path id="Path_708" data-name="Path 708" d="M96.711,40.928a55.783,55.783,0,1,0,55.783,55.784A55.784,55.784,0,0,0,96.711,40.928Z" transform="translate(-40.928 -40.928)" fill="#edf3fc"/>
        </g>
      </g>
      <g id="Group_395" data-name="Group 395" transform="translate(0 0)">
        <g id="Group_394" data-name="Group 394">
          <path id="Path_709" data-name="Path 709" d="M67.139,1a66.14,66.14,0,1,0,66.14,66.14A66.214,66.214,0,0,0,67.139,1Zm0,130.161A64.021,64.021,0,1,1,131.16,67.14,64.093,64.093,0,0,1,67.139,131.161Z" transform="translate(-1 -1)" fill="#edf3fc"/>
        </g>
      </g>
    </g>
    <path id="Path_710" data-name="Path 710" d="M191.076,206.088h0q-.07-.219-.161-.431l0-.008q-.088-.2-.2-.4l-.015-.026c-.068-.121-.143-.239-.222-.353l-.032-.047c-.075-.106-.155-.207-.239-.306-.018-.022-.035-.044-.054-.065-.08-.091-.165-.177-.252-.261-.026-.025-.051-.052-.078-.077-.084-.078-.174-.15-.265-.221-.033-.026-.065-.054-.1-.08-.093-.069-.191-.132-.29-.193-.036-.023-.07-.048-.106-.069a4.542,4.542,0,0,0-.427-.222,120.216,120.216,0,0,0-12.175-6.308c-4.625-2.008-10.654-4.078-13.54-4.311-1.245-.1-3.348-.243-4.639.868-.767.661-1.632,3.844-2.71,4.847a7.884,7.884,0,0,1-6.138,2.235c-1.093-.168-.563-3.326-.563-3.326s1.694-7.282,3.183-10.532a18.218,18.218,0,0,1-4.154.563,21.944,21.944,0,0,1-5.2-1.979L134.494,206.6a29.258,29.258,0,0,1,3.028,1.68c2.35,1.587,3.152,4.177,4.7,6.965a5.728,5.728,0,0,0,1.04,1.209l2.212-3.951a3.592,3.592,0,0,1,4.942-1.1,3.79,3.79,0,0,1,2.019,3.588,3.767,3.767,0,0,1,6.483,3.821,3.728,3.728,0,0,1,4.522-.562,3.647,3.647,0,0,1,1.585,4.9l-.024.042a3.546,3.546,0,0,1,3.727-.011c1.685.944,2.416,2.841,1.633,4.237l-1.858,3.322,3.05,1.721a4.081,4.081,0,0,0,5.222-5.96,4.343,4.343,0,0,0,4.759-7.007,4.339,4.339,0,0,0,4-7.7,4.513,4.513,0,0,0,5.543-5.708Z" transform="translate(-98.869 -136.563)" fill="#fdb813"/>
    <path id="Path_711" data-name="Path 711" d="M190.446,295.957a3.547,3.547,0,0,0-3.727.01l.024-.042a3.647,3.647,0,0,0-1.585-4.9,3.728,3.728,0,0,0-4.522.562,3.767,3.767,0,0,0-6.483-3.821,3.79,3.79,0,0,0-2.019-3.588,3.592,3.592,0,0,0-4.942,1.1l-2.976,5.317a3.591,3.591,0,0,0,1.645,4.791,3.748,3.748,0,0,0,4.324-.327,3.754,3.754,0,0,0,6.624,3.284,3.843,3.843,0,0,0,6.343,3.762,3.468,3.468,0,0,0,1.9,3.476,3.242,3.242,0,0,0,4.467-.822l2.556-4.568C192.862,298.8,192.131,296.9,190.446,295.957Z" transform="translate(-120.593 -209.338)" fill="#ffe37b"/>
    <path id="Path_712" data-name="Path 712" d="M229.781,173.17,224,175.105l-1.249.186c-.008,0-12.425-2.132-15.579-2.132s-11.967,1.827-13.563,3.2-4.05,11.921-4.05,11.921-.53,3.157.563,3.326a7.885,7.885,0,0,0,6.137-2.235c1.078-1,1.943-4.186,2.71-4.847,1.291-1.112,3.394-.969,4.639-.868,2.887.233,8.915,2.3,13.54,4.311a120.215,120.215,0,0,1,12.175,6.308,4.506,4.506,0,0,1,2.438,2.757,5.233,5.233,0,0,1,1.343-2.072,30.6,30.6,0,0,1,4.524-1.5Z" transform="translate(-139.558 -127.506)" fill="#ffe37b"/>
    <path id="Path_713" data-name="Path 713" d="M190.446,295.957a3.547,3.547,0,0,0-3.727.01l.024-.042a3.647,3.647,0,0,0-1.585-4.9,3.728,3.728,0,0,0-4.522.562,3.767,3.767,0,0,0-6.483-3.821,3.79,3.79,0,0,0-2.019-3.588,3.592,3.592,0,0,0-4.942,1.1l-2.976,5.317a3.591,3.591,0,0,0,1.645,4.791,3.748,3.748,0,0,0,4.324-.327,3.754,3.754,0,0,0,6.624,3.284,3.843,3.843,0,0,0,6.343,3.762,3.468,3.468,0,0,0,1.9,3.476,3.242,3.242,0,0,0,4.467-.822l2.556-4.568C192.862,298.8,192.131,296.9,190.446,295.957Z" transform="translate(-120.593 -209.338)" fill="#ffe37b"/>
    <path id="Path_714" data-name="Path 714" d="M342.036,148.272l9.939,25.69a2.6,2.6,0,0,0,3.368,1.489l7.652-2.96a2.6,2.6,0,0,0,1.489-3.368l-9.939-25.69a2.6,2.6,0,0,0-3.368-1.489l-7.652,2.96A2.607,2.607,0,0,0,342.036,148.272Z" transform="translate(-252.451 -104.256)" fill="#5932ae"/>
    <circle id="Ellipse_20" data-name="Ellipse 20" cx="1.993" cy="1.993" r="1.993" transform="translate(92.397 43.373) rotate(-21.15)" fill="#fff"/>
    <path id="Path_715" data-name="Path 715" d="M104.861,158.225l-9.939,25.69a2.6,2.6,0,0,1-3.368,1.489l-7.652-2.96a2.6,2.6,0,0,1-1.489-3.368l9.939-25.69a2.6,2.6,0,0,1,3.368-1.489l7.652,2.96A2.607,2.607,0,0,1,104.861,158.225Z" transform="translate(-60.167 -111.628)" fill="#330d84"/>
    <circle id="Ellipse_21" data-name="Ellipse 21" cx="1.993" cy="1.993" r="1.993" transform="translate(36.721 48.231) rotate(-68.85)" fill="#fff"/>
    <path id="Path_716" data-name="Path 716" d="M296.658,113.922l.594.149-.594.149a9.721,9.721,0,0,0-7.068,7.069l-.15.594-.149-.594a9.721,9.721,0,0,0-7.069-7.069l-.592-.149.592-.149a9.723,9.723,0,0,0,7.069-7.068l.149-.593.15.593a9.723,9.723,0,0,0,7.068,7.068Z" transform="translate(-207.843 -77.959)" fill="#8ac9f9"/>
    <path id="Path_717" data-name="Path 717" d="M96.678,306.457l.571.143-.571.143a9.341,9.341,0,0,0-6.791,6.792l-.144.57-.143-.57a9.342,9.342,0,0,0-6.793-6.792l-.569-.143.569-.143a9.343,9.343,0,0,0,6.793-6.791l.143-.57.144.57a9.343,9.343,0,0,0,6.791,6.791Z" transform="translate(-60.167 -220.778)" fill="#330d84"/>
    <path id="Path_718" data-name="Path 718" d="M132.123,110.978l.382.1-.382.1a6.24,6.24,0,0,0-4.537,4.537l-.1.381-.1-.381a6.24,6.24,0,0,0-4.538-4.537l-.38-.1.38-.1a6.241,6.241,0,0,0,4.538-4.537l.1-.381.1.381a6.241,6.241,0,0,0,4.537,4.537Z" transform="translate(-89.969 -77.811)" fill="#330d84"/>
    <path id="Path_719" data-name="Path 719" d="M302.457,363.309l.424.106-.424.106a6.928,6.928,0,0,0-5.037,5.038l-.107.423-.106-.423a6.928,6.928,0,0,0-5.038-5.038l-.422-.106.422-.106a6.929,6.929,0,0,0,5.038-5.037l.106-.423.107.423a6.929,6.929,0,0,0,5.037,5.037Z" transform="translate(-215.336 -264.293)" fill="#fdb813"/>
    <path id="Path_720" data-name="Path 720" d="M341.209,334.832l.259.065-.259.065a4.229,4.229,0,0,0-3.074,3.075l-.065.258-.065-.258a4.229,4.229,0,0,0-3.075-3.075l-.258-.065.258-.065A4.23,4.23,0,0,0,338,331.758l.065-.258.065.258a4.229,4.229,0,0,0,3.074,3.074Z" transform="translate(-247.127 -244.778)" fill="#fdb813"/>
  </g>
</svg>
